<svg width="77" height="77" viewBox="0 0 77 77" fill="none" xmlns="http://www.w3.org/2000/svg">
<rect width="77" height="77" rx="38.5" fill="#15151D"/>
<g clip-path="url(#clip0_61_1938)">
<path opacity="0.3" d="M41.3125 21.625C41.3125 20.5895 40.473 19.75 39.4375 19.75C38.402 19.75 37.5625 20.5895 37.5625 21.625V25.375C37.5625 26.4105 38.402 27.25 39.4375 27.25C40.473 27.25 41.3125 26.4105 41.3125 25.375V21.625Z" fill="#6A6E87"/>
<path opacity="0.3" d="M41.3125 47.875C41.3125 46.8395 40.473 46 39.4375 46C38.402 46 37.5625 46.8395 37.5625 47.875V53.5C37.5625 54.5355 38.402 55.375 39.4375 55.375C40.473 55.375 41.3125 54.5355 41.3125 53.5V47.875Z" fill="#6A6E87"/>
<path fill-rule="evenodd" clip-rule="evenodd" d="M45.0494 31.0825C44.5269 30.4175 43.8441 29.889 43.0009 29.4972C42.1578 29.1053 41.3444 28.9094 40.5606 28.9094C40.1569 28.9094 39.7472 28.945 39.3316 29.0162C38.9159 29.0875 38.5419 29.224 38.2094 29.4259C37.8769 29.6278 37.5978 29.889 37.3722 30.2097C37.1466 30.5303 37.0337 30.94 37.0337 31.4387C37.0337 31.8662 37.1228 32.2225 37.3009 32.5075C37.4791 32.7925 37.7403 33.0419 38.0847 33.2556C38.4291 33.4694 38.8387 33.6653 39.3137 33.8434C39.7887 34.0215 40.3231 34.2056 40.9169 34.3956C41.7719 34.6806 42.6625 34.9953 43.5887 35.3397C44.515 35.684 45.3581 36.1412 46.1181 36.7112C46.8781 37.2812 47.5075 37.9878 48.0062 38.8309C48.505 39.674 48.7544 40.725 48.7544 41.9837C48.7544 43.4325 48.4872 44.6853 47.9528 45.7422C47.4184 46.799 46.7 47.6719 45.7975 48.3606C44.895 49.0494 43.8619 49.56 42.6981 49.8925C41.5344 50.225 40.335 50.3912 39.1 50.3912C37.295 50.3912 35.5494 50.0765 33.8631 49.4472C32.1769 48.8178 30.7756 47.9212 29.6594 46.7575L33.6494 42.6962C34.2669 43.4562 35.0803 44.0915 36.0897 44.6022C37.0991 45.1128 38.1025 45.3681 39.1 45.3681C39.5512 45.3681 39.9906 45.3206 40.4181 45.2256C40.8456 45.1306 41.2197 44.9762 41.5403 44.7625C41.8609 44.5487 42.1162 44.2637 42.3062 43.9075C42.4962 43.5512 42.5912 43.1237 42.5912 42.625C42.5912 42.15 42.4725 41.7462 42.235 41.4137C41.9975 41.0812 41.6591 40.7784 41.2197 40.5053C40.7803 40.2322 40.2341 39.9828 39.5809 39.7572C38.9278 39.5315 38.1856 39.2881 37.3544 39.0269C36.5469 38.7656 35.7572 38.4569 34.9853 38.1006C34.2134 37.7444 33.5247 37.2872 32.9191 36.729C32.3134 36.1709 31.8266 35.494 31.4584 34.6984C31.0903 33.9028 30.9062 32.935 30.9062 31.795C30.9062 30.3937 31.1912 29.1944 31.7612 28.1969C32.3312 27.1994 33.0794 26.38 34.0056 25.7387C34.9319 25.0975 35.9769 24.6284 37.1406 24.3315C38.3044 24.0347 39.48 23.8862 40.6675 23.8862C42.0925 23.8862 43.5472 24.1475 45.0316 24.67C46.5159 25.1925 47.8162 25.9644 48.9325 26.9856L45.0494 31.0825Z" fill="#6A6E87"/>
</g>
<defs>
<clipPath id="clip0_61_1938">
<rect width="45" height="45" fill="white" transform="translate(16 16)"/>
</clipPath>
</defs>
</svg>
