<svg width="77" height="78" viewBox="0 0 77 78" fill="none" xmlns="http://www.w3.org/2000/svg">
<rect y="0.333496" width="77" height="77" rx="38.5" fill="#15151D"/>
<g clip-path="url(#clip0_61_1991)">
<path fill-rule="evenodd" clip-rule="evenodd" d="M41.6603 51.4115C45.8339 49.7442 51.0304 48.6765 57.25 48.2086C57.25 48.0821 57.25 40.8985 57.25 26.6579H57.25C57.25 26.1402 56.8303 25.7205 56.3125 25.7205C56.3046 25.7205 56.2967 25.7206 56.2888 25.7208C50.9842 25.8551 45.6796 27.101 40.375 29.4586C40.375 29.542 40.375 36.5695 40.375 50.5409H40.375C40.375 51.0587 40.7947 51.4784 41.3125 51.4784C41.4317 51.4784 41.5497 51.4557 41.6603 51.4115Z" fill="#6A6E87"/>
<path opacity="0.3" fill-rule="evenodd" clip-rule="evenodd" d="M35.3397 51.4115C31.1662 49.7442 25.9696 48.6765 19.75 48.2086C19.75 48.0821 19.75 40.8985 19.75 26.6579H19.75C19.75 26.1402 20.1698 25.7205 20.6875 25.7205C20.6954 25.7205 20.7033 25.7206 20.7112 25.7208C26.0158 25.8551 31.3204 27.101 36.625 29.4586C36.625 29.542 36.625 36.5695 36.625 50.5409H36.625C36.625 51.0587 36.2053 51.4784 35.6875 51.4784C35.5684 51.4784 35.4503 51.4557 35.3397 51.4115Z" fill="#6A6E87"/>
</g>
<defs>
<clipPath id="clip0_61_1991">
<rect width="45" height="45" fill="white" transform="translate(16 16.3335)"/>
</clipPath>
</defs>
</svg>
