<svg width="50" height="50" viewBox="0 0 50 50" fill="none" xmlns="http://www.w3.org/2000/svg">
<path opacity="0.1" fill-rule="evenodd" clip-rule="evenodd" d="M25 50C38.8071 50 50 38.8071 50 25C50 11.1929 38.8071 0 25 0C11.1929 0 0 11.1929 0 25C0 38.8071 11.1929 50 25 50Z" fill="#F8F8F8"/>
<g clip-path="url(#clip0_481_1672)">
<path d="M36.9537 26.1085C36.7382 23.9411 35.7699 21.8977 34.2271 20.3548C32.9085 19.0363 31.2947 18.1891 29.5966 17.8123V16.6213C30.2902 16.4488 30.8057 15.8209 30.8057 15.0747C30.8057 14.1959 30.0908 13.481 29.2119 13.481H25.8369C24.958 13.481 24.2431 14.1959 24.2431 15.0747C24.2431 15.8209 24.7586 16.4487 25.4522 16.6213V17.8156C23.7592 18.194 22.1508 19.0401 20.836 20.3549C20.5483 20.6426 20.2829 20.9444 20.0401 21.2581C20.0283 21.2572 20.0165 21.2563 20.0045 21.2563H16.6641C16.4053 21.2563 16.1954 21.4662 16.1954 21.7251C16.1954 21.984 16.4053 22.1938 16.6641 22.1938H19.4022C19.0585 22.7692 18.7814 23.3735 18.5705 23.9956H13.4688C13.2099 23.9956 13 24.2054 13 24.4643C13 24.7232 13.2099 24.9331 13.4688 24.9331H18.3056C18.1705 25.5261 18.093 26.1296 18.0729 26.7348H16C15.7412 26.7348 15.5313 26.9447 15.5313 27.2036C15.5313 27.4625 15.7412 27.6723 16 27.6723H18.0879C18.1275 28.2791 18.225 28.8827 18.3806 29.4741H15.3438C15.0849 29.4741 14.875 29.684 14.875 29.9429C14.875 30.2018 15.0849 30.4116 15.3438 30.4116H18.6797C19.1396 31.6281 19.8582 32.7683 20.836 33.746C22.3803 35.2904 24.4258 36.2589 26.5955 36.4733C26.9052 36.5038 27.2151 36.519 27.5245 36.519C29.3537 36.519 31.1597 35.9896 32.692 34.9917C32.909 34.8504 32.9703 34.56 32.829 34.3431C32.6878 34.1262 32.3974 34.0648 32.1804 34.2061C28.8261 36.3903 24.3339 35.9181 21.4989 33.0831C18.1725 29.7567 18.1725 24.3443 21.4989 21.0178C24.8252 17.6915 30.2377 17.6915 33.5641 21.0178C36.3954 23.8491 36.8702 28.3375 34.6932 31.6902C34.5521 31.9073 34.6139 32.1976 34.831 32.3386C35.0482 32.4796 35.3384 32.4179 35.4794 32.2007C36.6426 30.4094 37.1662 28.2458 36.9537 26.1085ZM25.1806 15.0748C25.1806 14.7129 25.475 14.4185 25.8369 14.4185H29.2119C29.5738 14.4185 29.8682 14.7129 29.8682 15.0748C29.8682 15.4367 29.5738 15.731 29.2119 15.731H29.1278H25.9209H25.8369C25.475 15.731 25.1806 15.4366 25.1806 15.0748ZM26.3897 17.6545V16.6686H28.6591V17.6528C27.9055 17.5632 27.1431 17.5637 26.3897 17.6545Z" fill="#0003FF"/>
<path d="M33.8953 32.9458C33.7715 32.9458 33.651 32.996 33.5639 33.0831C33.4762 33.1703 33.4265 33.2913 33.4265 33.4146C33.4265 33.5378 33.4762 33.6588 33.5639 33.746C33.651 33.8336 33.7716 33.8833 33.8953 33.8833C34.0185 33.8833 34.139 33.8336 34.2267 33.746C34.3139 33.6588 34.364 33.5378 34.364 33.4146C34.364 33.2913 34.3139 33.1703 34.2267 33.0831C34.139 32.996 34.0185 32.9458 33.8953 32.9458Z" fill="#D9B346"/>
<path d="M27.5309 19.7788C23.5213 19.7788 20.2592 23.0409 20.2592 27.0506C20.2592 31.0603 23.5213 34.3224 27.5309 34.3224C31.5406 34.3224 34.8027 31.0603 34.8027 27.0506C34.8027 23.0409 31.5406 19.7788 27.5309 19.7788ZM27.5309 33.3849C24.0382 33.3849 21.1967 30.5433 21.1967 27.0506C21.1967 23.5579 24.0382 20.7163 27.5309 20.7163C31.0237 20.7163 33.8652 23.5579 33.8652 27.0506C33.8652 30.5433 31.0237 33.3849 27.5309 33.3849Z" fill="#0003FF"/>
<path d="M30.496 23.422L28.1743 25.7437C27.9801 25.6477 27.7617 25.5934 27.5309 25.5934C27.2999 25.5934 27.0816 25.6477 26.8874 25.7437L25.8483 24.7046C25.6652 24.5215 25.3685 24.5215 25.1854 24.7046C25.0023 24.8876 25.0023 25.1844 25.1854 25.3675L26.2245 26.4066C26.1284 26.6007 26.0742 26.8191 26.0742 27.05C26.0742 27.8532 26.7276 28.5066 27.5309 28.5066C28.3341 28.5066 28.9875 27.8532 28.9875 27.05C28.9875 26.8191 28.9332 26.6007 28.8372 26.4066L31.0908 24.153L31.1589 24.0849C31.342 23.9018 31.342 23.605 31.1589 23.422C30.9759 23.2389 30.6792 23.2389 30.496 23.422ZM27.5309 27.5691C27.2446 27.5691 27.0118 27.3363 27.0118 27.05C27.0118 26.7638 27.2446 26.5309 27.5309 26.5309C27.8171 26.5309 28.05 26.7638 28.05 27.05C28.05 27.3363 27.8171 27.5691 27.5309 27.5691Z" fill="#0003FF"/>
<path d="M32.5426 26.5874H32.1083C31.8494 26.5874 31.6395 26.7973 31.6395 27.0562C31.6395 27.315 31.8494 27.5249 32.1083 27.5249H32.5426C32.8014 27.5249 33.0113 27.315 33.0113 27.0562C33.0113 26.7973 32.8014 26.5874 32.5426 26.5874Z" fill="#D9B346"/>
<path d="M22.953 26.5762H22.5188C22.26 26.5762 22.05 26.786 22.05 27.0449C22.05 27.3038 22.26 27.5137 22.5188 27.5137H22.953C23.2119 27.5137 23.4218 27.3038 23.4218 27.0449C23.4218 26.786 23.2119 26.5762 22.953 26.5762Z" fill="#D9B346"/>
<path d="M27.538 22.9411C27.7968 22.9411 28.0067 22.7312 28.0067 22.4723V22.0381C28.0067 21.7792 27.7968 21.5693 27.538 21.5693C27.2791 21.5693 27.0692 21.7792 27.0692 22.0381V22.4723C27.0692 22.7312 27.2791 22.9411 27.538 22.9411Z" fill="#D9B346"/>
<path d="M27.5266 31.1592C27.2678 31.1592 27.0579 31.369 27.0579 31.6279V32.0622C27.0579 32.3211 27.2678 32.5309 27.5266 32.5309C27.7855 32.5309 27.9954 32.3211 27.9954 32.0622V31.6279C27.9954 31.369 27.7855 31.1592 27.5266 31.1592Z" fill="#D9B346"/>
<path d="M13.4688 29.4736C13.3455 29.4736 13.2245 29.5238 13.1373 29.611C13.0502 29.6982 13 29.8191 13 29.9424C13 30.0661 13.0501 30.1866 13.1373 30.2738C13.2246 30.361 13.3455 30.4111 13.4688 30.4111C13.592 30.4111 13.713 30.361 13.8001 30.2738C13.8873 30.1866 13.9375 30.0657 13.9375 29.9424C13.9375 29.8191 13.8873 29.6982 13.8001 29.611C13.713 29.5238 13.592 29.4736 13.4688 29.4736Z" fill="#D9B346"/>
</g>
<defs>
<clipPath id="clip0_481_1672">
<rect width="24" height="24" fill="white" transform="translate(13 13)"/>
</clipPath>
</defs>
</svg>
