<svg width="50" height="50" viewBox="0 0 50 50" fill="none" xmlns="http://www.w3.org/2000/svg">
<path opacity="0.1" fill-rule="evenodd" clip-rule="evenodd" d="M25 50C38.8071 50 50 38.8071 50 25C50 11.1929 38.8071 0 25 0C11.1929 0 0 11.1929 0 25C0 38.8071 11.1929 50 25 50Z" fill="#D9B346"/>
<g clip-path="url(#clip0_481_1669)">
<path d="M20.6263 22.3564C20.5623 22.2309 20.4371 22.1485 20.2967 22.1393L16.9318 21.9149C16.7574 21.8977 16.5962 22.0057 16.5326 22.1681L14.1068 28.3676C14.0416 28.534 14.0948 28.7232 14.2372 28.8315C14.3084 28.8859 14.394 28.9132 14.4792 28.9132C14.5635 28.9132 14.648 28.8868 14.7192 28.8332L16.7326 27.3233L17.9049 27.5577C18.0961 27.5957 18.2873 27.4909 18.3569 27.3081C18.9865 25.659 19.7444 24.1256 20.6087 22.7509C20.6835 22.6316 20.6903 22.4816 20.6263 22.3564ZM17.7321 26.7073L16.7138 26.5037C16.6026 26.4817 16.4866 26.5081 16.3954 26.5761L15.3639 27.3496L17.1706 22.7324L19.5856 22.8932C18.8896 24.0711 18.2681 25.3502 17.7321 26.7073Z" fill="#0003FF"/>
<path d="M28.085 33.0697L27.8606 29.7043C27.851 29.5635 27.7686 29.4384 27.643 29.3744C27.5178 29.3104 27.3678 29.3167 27.2486 29.3919C25.8735 30.2563 24.3405 31.0142 22.6914 31.6437C22.509 31.7129 22.4034 31.9041 22.4419 32.0957L22.6762 33.268L21.1663 35.2811C21.0591 35.4243 21.0596 35.621 21.1679 35.7634C21.2451 35.865 21.3639 35.9214 21.4863 35.9214C21.5351 35.9214 21.5843 35.9122 21.6323 35.8946L27.8318 33.4688C27.9942 33.4053 28.0966 33.2437 28.085 33.0697ZM22.6498 34.6364L23.4233 33.6049C23.4913 33.5141 23.5177 33.3981 23.4953 33.2865L23.2917 32.2686C24.6492 31.7326 25.9279 31.1111 27.1058 30.4151L27.267 32.8297L22.6498 34.6364Z" fill="#0003FF"/>
<path d="M24.5984 25.0005H21.9034C21.7583 25.0005 21.6247 25.0793 21.5538 25.2061L18.1713 31.284C18.0833 31.4424 18.1129 31.6408 18.2433 31.7664C18.3197 31.84 18.42 31.8784 18.5209 31.8784C18.5921 31.8784 18.6636 31.8596 18.7276 31.8204L24.8056 28.1423C24.9251 28.0699 24.9984 27.9403 24.9984 27.8004V25.4005C24.9984 25.1797 24.8192 25.0005 24.5984 25.0005ZM24.1985 27.5751L19.6032 30.3561L22.1383 25.8008V25.8004H24.1985V27.5751Z" fill="#0003FF"/>
<path d="M36.9806 13.3856C36.9642 13.1908 36.8098 13.0364 36.615 13.02C36.4822 13.0096 23.3108 12.0901 17.6097 27.0226C17.5533 27.1702 17.5889 27.3365 17.7005 27.4482L19.6023 29.35C19.6915 29.4392 19.8163 29.48 19.9415 29.4632C20.0659 29.4452 20.1747 29.37 20.2355 29.26L22.1409 25.8003H24.2V27.5797L20.7195 29.7772C20.6167 29.8424 20.5491 29.9504 20.5355 30.0712C20.5219 30.192 20.5643 30.3123 20.6503 30.3983L22.5521 32.3002C22.6285 32.3766 22.7305 32.4174 22.8349 32.4174C22.8829 32.4174 22.9313 32.409 22.9777 32.391C37.9109 26.6894 36.9918 13.518 36.9806 13.3856ZM34.8823 20.4819C33.4788 23.9544 30.2671 28.6753 22.9336 31.5507L21.5697 30.1868L24.8135 28.1389C24.9294 28.0653 24.9999 27.9377 24.9999 27.8005V25.4007C24.9999 25.1799 24.8207 25.0007 24.5999 25.0007H21.9041C21.7581 25.0007 21.6241 25.0803 21.5537 25.2079L19.791 28.4084L18.4499 27.0669C23.4548 14.2991 34.1228 13.7768 36.1966 13.806C36.2114 14.7387 36.1258 17.4049 34.8823 20.4819Z" fill="#0003FF"/>
<path d="M19.8515 30.6657C19.7647 30.5505 19.6263 30.4945 19.4907 30.5089C19.5047 30.3729 19.4487 30.2349 19.3339 30.1481C18.7307 29.6921 17.9524 29.5405 17.1977 29.7317C16.3965 29.9353 15.7414 30.4816 15.4006 31.2316L13.036 36.434C12.9668 36.586 12.9992 36.7648 13.1172 36.8824C13.1936 36.9591 13.296 36.9995 13.4 36.9995C13.456 36.9995 13.5124 36.9875 13.5656 36.9635L18.768 34.5985C19.5175 34.2582 20.0639 33.603 20.2675 32.8019C20.4591 32.0479 20.3075 31.2692 19.8515 30.6657ZM19.4923 32.6051C19.3491 33.1695 18.9644 33.6306 18.4372 33.8706L14.2055 35.7941L16.129 31.562C16.3685 31.0348 16.8301 30.6501 17.3945 30.5069C17.5429 30.4693 17.692 30.4509 17.8392 30.4509C18.0884 30.4509 18.332 30.5041 18.554 30.6077L18.1732 31.2816C18.0848 31.438 18.1116 31.6344 18.2388 31.7612C18.366 31.8888 18.5624 31.9152 18.7184 31.8268L19.3923 31.4456C19.5563 31.7984 19.5935 32.2059 19.4923 32.6051Z" fill="#0003FF"/>
<path d="M36.9798 13.3861C36.9634 13.1913 36.809 13.0369 36.6143 13.0205C36.4583 13.0081 32.7505 12.7273 28.3901 14.736C28.2713 14.7904 28.1869 14.9 28.1637 15.0288C28.1405 15.1576 28.1821 15.2895 28.2745 15.3819L34.618 21.7255C34.6936 21.8011 34.7956 21.8426 34.9008 21.8426C34.9244 21.8426 34.948 21.8406 34.9716 21.8366C35.1004 21.8134 35.2096 21.7291 35.2644 21.6102C37.2734 17.2498 36.9926 13.5417 36.9798 13.3861ZM34.7712 20.7467L29.2532 15.2287C32.4454 13.8812 35.2407 13.7884 36.1963 13.8045C36.2123 14.7608 36.1223 17.5474 34.7712 20.7467Z" fill="#0003FF"/>
<path d="M30.6651 19.3355C29.32 17.9904 27.1318 17.9904 25.7867 19.3355C24.4416 20.6806 24.4416 22.8688 25.7867 24.2139C26.459 24.8866 27.3426 25.2226 28.2257 25.2226C29.1092 25.2226 29.9923 24.8863 30.6651 24.2139C32.0102 22.8688 32.0102 20.6806 30.6651 19.3355ZM30.0995 23.6483C29.0664 24.6814 27.3854 24.6814 26.3523 23.6483C25.3191 22.6152 25.3191 20.9341 26.3523 19.901C26.8686 19.3847 27.5474 19.1263 28.2257 19.1263C28.9041 19.1263 29.5828 19.3847 30.0996 19.901C31.1327 20.9341 31.1327 22.6152 30.0995 23.6483Z" fill="#0003FF"/>
<path d="M29.0192 22.57C28.5808 23.0092 27.8673 23.0088 27.4285 22.57C26.9901 22.1313 26.9901 21.4181 27.4285 20.9794C27.8669 20.541 28.5804 20.5406 29.0192 20.9794C29.1752 21.1357 29.4288 21.1357 29.5847 20.9794C29.7411 20.823 29.7411 20.5702 29.5847 20.4138C28.8348 19.6635 27.6133 19.6635 26.8629 20.4138C26.1126 21.1641 26.1126 22.3853 26.8629 23.1356C27.2381 23.5108 27.7313 23.6984 28.224 23.6984C28.7172 23.6984 29.21 23.5108 29.5847 23.1356C29.7411 22.9792 29.7411 22.7264 29.5847 22.57C29.4287 22.4137 29.1752 22.4137 29.0192 22.57Z" fill="#0003FF"/>
</g>
<defs>
<clipPath id="clip0_481_1669">
<rect width="24" height="24" fill="white" transform="translate(13 13)"/>
</clipPath>
</defs>
</svg>
