<svg width="50" height="50" viewBox="0 0 50 50" fill="none" xmlns="http://www.w3.org/2000/svg">
<path opacity="0.1" fill-rule="evenodd" clip-rule="evenodd" d="M25 50C38.8071 50 50 38.8071 50 25C50 11.1929 38.8071 0 25 0C11.1929 0 0 11.1929 0 25C0 38.8071 11.1929 50 25 50Z" fill="#D9B346"/>
<g clip-path="url(#clip0_481_1674)">
<path d="M27.0131 21.6528C25.8848 21.6528 24.9996 22.9098 24.9996 22.9098C24.9996 22.9098 24.1645 21.6528 22.9855 21.6528C21.8388 21.6528 20.9023 22.5979 20.841 23.7421C20.8065 24.3885 21.0151 24.8805 21.3089 25.3261C21.8961 26.2163 25.0034 28.347 25.0034 28.347C25.0034 28.347 28.0989 26.2241 28.69 25.3261C28.9845 24.8785 29.1924 24.3885 29.1578 23.7421C29.0964 22.5979 28.1599 21.6528 27.0131 21.6528Z" fill="#0003FF"/>
<path d="M24.9991 34.4468H24.9991C24.7402 34.4468 24.5303 34.6567 24.5304 34.9156L24.5305 35.3777C24.5305 35.6366 24.7404 35.8464 24.9992 35.8464H24.9993C25.2582 35.8463 25.468 35.6364 25.468 35.3775L25.4679 34.9154C25.4678 34.6566 25.258 34.4468 24.9991 34.4468Z" fill="#0003FF"/>
<path d="M27.7448 33.5846C27.5618 33.4015 27.265 33.4015 27.0819 33.5846C26.8988 33.7676 26.8988 34.0644 27.0819 34.2475L27.2846 34.4502C27.3761 34.5418 27.4961 34.5875 27.616 34.5875C27.736 34.5875 27.856 34.5418 27.9475 34.4502C28.1305 34.2672 28.1305 33.9704 27.9475 33.7873L27.7448 33.5846Z" fill="#0003FF"/>
<path d="M22.2548 33.5841L22.0521 33.7868C21.869 33.9698 21.869 34.2667 22.0521 34.4497C22.1436 34.5413 22.2636 34.587 22.3835 34.587C22.5035 34.587 22.6235 34.5413 22.715 34.4497L22.9177 34.247C23.1008 34.064 23.1008 33.7672 22.9177 33.5841C22.7347 33.401 22.4379 33.401 22.2548 33.5841Z" fill="#0003FF"/>
<path d="M25.0008 15.5529H25.0009C25.2598 15.5529 25.4696 15.343 25.4696 15.0841L25.4695 14.622C25.4694 14.3631 25.2596 14.1533 25.0007 14.1533H25.0006C24.7417 14.1534 24.5319 14.3633 24.532 14.6222L24.5321 15.0843C24.5321 15.3431 24.742 15.5529 25.0008 15.5529Z" fill="#0003FF"/>
<path d="M22.715 15.5494C22.532 15.3663 22.2352 15.3663 22.0521 15.5494C21.869 15.7324 21.869 16.0293 22.0521 16.2124L22.2548 16.4151C22.3464 16.5066 22.4663 16.5524 22.5863 16.5524C22.7062 16.5524 22.8262 16.5066 22.9177 16.4151C23.1008 16.232 23.1008 15.9352 22.9177 15.7521L22.715 15.5494Z" fill="#0003FF"/>
<path d="M27.2856 15.5499L27.0828 15.7527C26.8998 15.9357 26.8998 16.2325 27.0828 16.4156C27.1744 16.5071 27.2943 16.5529 27.4143 16.5529C27.5342 16.5529 27.6542 16.5071 27.7457 16.4156L27.9485 16.2129C28.1315 16.0298 28.1315 15.733 27.9485 15.5499C27.7654 15.3668 27.4686 15.3668 27.2856 15.5499Z" fill="#0003FF"/>
<path d="M20.9702 17.9186C20.9702 17.4223 20.7769 16.9557 20.426 16.6048C20.075 16.2538 19.6084 16.0605 19.1121 16.0605C18.6159 16.0605 18.1492 16.2538 17.7983 16.6048C16.276 18.127 15.2006 20.0267 14.6812 22.1079C13.6777 22.6821 13 23.7634 13 25C13 26.2366 13.6777 27.3179 14.6812 27.8921C15.2006 29.9732 16.276 31.8729 17.7983 33.3952C18.1492 33.7462 18.6158 33.9394 19.1121 33.9394C19.6084 33.9394 20.075 33.7462 20.426 33.3952C21.1504 32.6707 21.1504 31.492 20.426 30.7675C19.5266 29.8682 18.8478 28.7655 18.4514 27.5637C19.1886 26.9525 19.6589 26.0302 19.6589 25C19.6589 23.9698 19.1886 23.0475 18.4514 22.4363C18.8478 21.2346 19.5266 20.1318 20.426 19.2325C20.7769 18.8815 20.9702 18.4149 20.9702 17.9186ZM19.763 31.4304C20.122 31.7893 20.122 32.3733 19.763 32.7323C19.5892 32.9061 19.358 33.0019 19.1121 33.0019C18.8663 33.0019 18.6351 32.9061 18.4612 32.7323C17.2111 31.4821 16.2883 29.9559 15.764 28.2813C15.9478 28.3129 16.1367 28.3294 16.3294 28.3294C16.7914 28.3294 17.2317 28.2348 17.632 28.0639C18.0821 29.3242 18.812 30.4794 19.763 31.4304ZM18.7214 25C18.7214 26.3189 17.6484 27.3919 16.3294 27.3919C15.0105 27.3919 13.9375 26.3189 13.9375 25C13.9375 23.6811 15.0105 22.608 16.3294 22.608C17.6484 22.608 18.7214 23.6811 18.7214 25ZM19.763 18.5695C18.812 19.5206 18.0821 20.6758 17.632 21.936C17.2317 21.7651 16.7914 21.6705 16.3294 21.6705C16.1367 21.6705 15.9478 21.687 15.764 21.7185C16.2883 20.044 17.2111 18.5177 18.4612 17.2677C18.635 17.0938 18.8662 16.998 19.1121 16.998C19.3579 16.998 19.5892 17.0938 19.763 17.2677C19.9369 17.4415 20.0327 17.6727 20.0327 17.9186C20.0327 18.1644 19.9369 18.3957 19.763 18.5695Z" fill="#0003FF"/>
<path d="M36.9993 25C36.9993 23.7634 36.3216 22.6821 35.3181 22.1079C34.7987 20.0267 33.7233 18.1271 32.2011 16.6048C31.8501 16.2538 31.3835 16.0605 30.8872 16.0605C30.3909 16.0605 29.9243 16.2538 29.5733 16.6048C28.8489 17.3292 28.8489 18.508 29.5733 19.2325C30.4727 20.1318 31.1515 21.2345 31.5479 22.4363C30.8107 23.0475 30.3405 23.9698 30.3405 25C30.3405 26.0302 30.8107 26.9525 31.5479 27.5637C31.1515 28.7654 30.4727 29.8681 29.5733 30.7675C29.2224 31.1184 29.0292 31.585 29.0292 32.0813C29.0292 32.5777 29.2224 33.0443 29.5733 33.3952C29.9243 33.7462 30.3909 33.9394 30.8872 33.9394C31.3835 33.9394 31.8501 33.7462 32.2011 33.3952C33.7233 31.8729 34.7987 29.9733 35.3181 27.8921C36.3216 27.3179 36.9993 26.2366 36.9993 25ZM30.2363 18.5696C29.8774 18.2107 29.8774 17.6266 30.2363 17.2677C30.4102 17.0939 30.6413 16.9981 30.8872 16.9981C31.1331 16.9981 31.3642 17.0939 31.5381 17.2677C32.7883 18.5178 33.711 20.0441 34.2353 21.7186C34.0515 21.687 33.8626 21.6706 33.6699 21.6706C33.2079 21.6706 32.7676 21.7652 32.3673 21.936C31.9172 20.6758 31.1873 19.5206 30.2363 18.5696ZM31.2779 25C31.2779 23.6811 32.351 22.608 33.6699 22.608C34.9888 22.608 36.0618 23.6811 36.0618 25C36.0618 26.3189 34.9888 27.3919 33.6699 27.3919C32.351 27.3919 31.2779 26.3189 31.2779 25ZM31.5381 32.7323C31.3643 32.9061 31.1331 33.0019 30.8872 33.0019C30.6414 33.0019 30.4102 32.9061 30.2363 32.7323C30.0624 32.5584 29.9667 32.3272 29.9667 32.0813C29.9667 31.8355 30.0624 31.6043 30.2363 31.4304C31.1873 30.4794 31.9172 29.3242 32.3673 28.064C32.7676 28.2348 33.2079 28.3295 33.6699 28.3295C33.8626 28.3295 34.0515 28.313 34.2353 28.2814C33.711 29.9559 32.7882 31.4822 31.5381 32.7323Z" fill="#0003FF"/>
</g>
<defs>
<clipPath id="clip0_481_1674">
<rect width="24" height="24" fill="white" transform="translate(13 13)"/>
</clipPath>
</defs>
</svg>
