<svg width="42" height="44" viewBox="0 0 42 44" fill="none" xmlns="http://www.w3.org/2000/svg">
<path fill-rule="evenodd" clip-rule="evenodd" d="M14.6699 2.26601C12.4728 -0.275023 8.27273 1.2654 8.27273 4.61223V5.36879L5.98671 4.4624C3.59814 3.51534 1 5.25929 1 7.80963V34.6014C1 36.0435 1.8669 37.3469 3.20393 37.9149L15.1723 43H26.8277L38.7961 37.9149C40.1331 37.3469 41 36.0435 41 34.6014V7.80963C41 5.25929 38.4019 3.51534 36.0133 4.4624L33.7264 5.36912L33.7264 4.61227C33.7263 1.2654 29.5261 -0.274844 27.3291 2.2663L20.9999 9.58674L14.6699 2.26601ZM4.63636 7.80963V34.6014L15.9187 39.395H17.0469L9.14816 30.2593C8.58325 29.6059 8.27273 28.7737 8.27273 27.9132V9.25142L4.63636 7.80963ZM24.9531 39.395H26.0813L37.3636 34.6014V7.80963L33.7266 9.25171L33.7272 27.9131C33.7273 28.7737 33.4168 29.6059 32.8518 30.2593L24.9531 39.395ZM22.8182 36.3249L30.0909 27.9132L30.09 4.61239L22.8182 13.0232V36.3249ZM19.1818 13.0232L11.9091 4.61223V27.9132L19.1818 36.3249V13.0232Z" fill="#ACA5A5" stroke="#ACA5A5"/>
</svg>
