<svg width="22" height="23" viewBox="0 0 22 23" fill="none" xmlns="http://www.w3.org/2000/svg">
<path fill-rule="evenodd" clip-rule="evenodd" d="M6.54469 6.68731C7.79329 6.55342 9.2663 6.50008 11 6.50008C12.7337 6.50008 14.2067 6.55342 15.4553 6.68731C15.3055 5.50583 14.7922 4.63942 14.1169 4.03916C13.2912 3.30518 12.1619 2.91675 11 2.91675C9.83807 2.91675 8.70883 3.30518 7.88311 4.03916C7.20782 4.63942 6.69451 5.50583 6.54469 6.68731ZM17.4907 7.02664C17.3981 5.10723 16.6222 3.59018 15.4456 2.54434C14.2088 1.44498 12.5881 0.916748 11 0.916748C9.41193 0.916748 7.79117 1.44498 6.55439 2.54434C5.37782 3.59018 4.6019 5.10723 4.50932 7.02664C0.930607 7.90135 0 10.0465 0 14.7501C0 21.544 1.9415 23.0001 11 23.0001C20.0585 23.0001 22 21.544 22 14.7501C22 10.0465 21.0694 7.90135 17.4907 7.02664ZM2 14.7501C2 18.1299 2.53226 19.2447 3.30306 19.8228C3.75441 20.1613 4.4945 20.4779 5.78852 20.6936C7.07981 20.9089 8.76875 21.0001 11 21.0001C13.2313 21.0001 14.9202 20.9089 16.2115 20.6936C17.5055 20.4779 18.2456 20.1613 18.6969 19.8228C19.4677 19.2447 20 18.1299 20 14.7501C20 11.3702 19.4677 10.2555 18.6969 9.67738C18.2456 9.33887 17.5055 9.02223 16.2115 8.80654C14.9202 8.59131 13.2313 8.50008 11 8.50008C8.76875 8.50008 7.07981 8.59131 5.78852 8.80654C4.4945 9.02223 3.75441 9.33887 3.30306 9.67738C2.53226 10.2555 2 11.3702 2 14.7501Z" fill="#707070"/>
<circle cx="2.75" cy="2.75" r="1.75" transform="matrix(-1 0 0 1 13.75 12)" stroke="#707070" stroke-width="2"/>
</svg>
