<svg width="482" height="335" viewBox="0 0 482 335" fill="none" xmlns="http://www.w3.org/2000/svg">
<path opacity="0.3" d="M63.7068 17.9879C63.6635 18.3029 63.3339 18.9912 61.7521 19.7911C60.2365 20.5574 57.9749 21.2053 55.0487 21.6411C49.2236 22.5085 41.2273 22.4694 32.4698 21.266C23.7122 20.0626 16.0017 17.9435 10.6265 15.537C7.9263 14.3281 5.92326 13.0942 4.6706 11.9474C3.36315 10.7506 3.23138 9.99889 3.27468 9.68383C3.31797 9.36877 3.6476 8.6805 5.22942 7.88063C6.74497 7.11428 9.00659 6.46636 11.9328 6.03061C17.7579 5.16317 25.7542 5.20229 34.5117 6.40567C43.2693 7.60906 50.9798 9.72823 56.355 12.1347C59.0552 13.3436 61.0582 14.5775 62.3109 15.7243C63.6183 16.9212 63.7501 17.6728 63.7068 17.9879Z" stroke="url(#paint0_radial_490_1665)" stroke-width="4"/>
<path d="M385.266 264.579C385.618 265.11 385.922 266.414 384.813 269.147C383.749 271.772 381.628 275.048 378.468 278.772C372.174 286.186 362.215 294.839 350.065 302.886C337.915 310.933 326.063 316.727 316.78 319.628C312.119 321.085 308.274 321.76 305.442 321.716C302.494 321.67 301.412 320.881 301.06 320.35C300.708 319.819 300.405 318.516 301.513 315.782C302.577 313.158 304.698 309.881 307.858 306.158C314.152 298.743 324.111 290.09 336.261 282.043C348.411 273.996 360.264 268.203 369.546 265.301C374.207 263.844 378.052 263.17 380.884 263.214C383.833 263.26 384.914 264.048 385.266 264.579Z" stroke="url(#paint1_radial_490_1665)" stroke-width="6"/>
<path opacity="0.7" d="M197.142 279.513C197.055 280.145 196.423 281.324 193.785 282.644C191.252 283.911 187.496 284.971 182.663 285.678C173.041 287.088 159.848 287.006 145.411 285.022C130.973 283.039 118.247 279.559 109.361 275.606C104.899 273.621 101.568 271.588 99.4706 269.684C97.2869 267.702 96.9956 266.395 97.0824 265.764C97.1691 265.133 97.8019 263.954 100.439 262.634C102.972 261.366 106.729 260.307 111.561 259.599C121.184 258.19 134.376 258.271 148.814 260.255C163.252 262.239 175.977 265.719 184.863 269.672C189.325 271.656 192.657 273.69 194.754 275.594C196.938 277.576 197.229 278.882 197.142 279.513Z" stroke="url(#paint2_radial_490_1665)" stroke-width="6"/>
<path opacity="0.4" d="M472.474 84.3937C472.206 86.9139 470.04 90.197 463.725 93.603C457.582 96.9163 448.575 99.731 437.145 101.765C414.355 105.82 383.09 106.574 348.823 102.932C314.556 99.2914 284.148 91.9854 262.718 83.2313C251.972 78.841 243.756 74.1963 238.447 69.6662C232.989 65.0093 231.561 61.3442 231.829 58.824C232.096 56.3037 234.263 53.0206 240.578 49.6146C246.72 46.3014 255.728 43.4866 267.158 41.4528C289.948 37.3972 321.212 36.6441 355.48 40.2851C389.747 43.9262 420.155 51.2322 441.584 59.9864C452.331 64.3766 460.546 69.0214 465.856 73.5514C471.313 78.2083 472.742 81.8734 472.474 84.3937Z" stroke="url(#paint3_radial_490_1665)" stroke-width="10"/>
<defs>
<radialGradient id="paint0_radial_490_1665" cx="0" cy="0" r="1" gradientUnits="userSpaceOnUse" gradientTransform="translate(33.4907 13.8359) rotate(97.8241) scale(9.5 32.5)">
<stop stop-color="#3F51E8"/>
<stop offset="0.572917" stop-color="#9BA4ED"/>
<stop offset="1" stop-color="#1F34E7"/>
</radialGradient>
<radialGradient id="paint1_radial_490_1665" cx="0" cy="0" r="1" gradientUnits="userSpaceOnUse" gradientTransform="translate(343.163 292.465) rotate(56.4828) scale(15.5 53.5)">
<stop stop-color="#3F51E8"/>
<stop offset="0.572917" stop-color="#9BA4ED"/>
<stop offset="1" stop-color="#1F34E7"/>
</radialGradient>
<radialGradient id="paint2_radial_490_1665" cx="0" cy="0" r="1" gradientUnits="userSpaceOnUse" gradientTransform="translate(147.112 272.639) rotate(97.8241) scale(15.5 53.5)">
<stop stop-color="#3F51E8"/>
<stop offset="0.572917" stop-color="#9BA4ED"/>
<stop offset="1" stop-color="#1F34E7"/>
</radialGradient>
<radialGradient id="paint3_radial_490_1665" cx="0" cy="0" r="1" gradientUnits="userSpaceOnUse" gradientTransform="translate(352.151 71.6088) rotate(96.0652) scale(36.5 126)">
<stop stop-color="#3F51E8"/>
<stop offset="0.572917" stop-color="#9BA4ED"/>
<stop offset="1" stop-color="#1F34E7"/>
</radialGradient>
</defs>
</svg>
