<svg width="53" height="628" viewBox="0 0 53 628" fill="none" xmlns="http://www.w3.org/2000/svg">
<g filter="url(#filter0_d_61_1800)">
<rect x="4" width="45" height="45" rx="22.5" fill="white" fill-opacity="0.1"/>
<path d="M26.048 28.5V17.78L26.664 18.268L23.2 20.716V19.084L26.664 16.62H27.752V28.5H26.048Z" fill="white"/>
<line x1="26.75" y1="45" x2="26.75" y2="143.75" stroke="#00E5FF" stroke-width="0.5"/>
<rect x="4" y="143.75" width="45" height="45" rx="22.5" fill="white" fill-opacity="0.1"/>
<path d="M22.448 172.25V171.33L25.8 166.946C26.1733 166.466 26.4693 166.037 26.688 165.658C26.912 165.274 27.072 164.922 27.168 164.602C27.2693 164.277 27.32 163.959 27.32 163.65C27.32 162.951 27.1227 162.447 26.728 162.138C26.3333 161.823 25.7227 161.666 24.896 161.666C24.432 161.666 23.9787 161.706 23.536 161.786C23.0987 161.866 22.6907 161.981 22.312 162.13V160.706C22.5413 160.621 22.808 160.543 23.112 160.474C23.416 160.405 23.7333 160.351 24.064 160.314C24.4 160.277 24.7307 160.258 25.056 160.258C26.3307 160.258 27.3067 160.517 27.984 161.034C28.6667 161.551 29.008 162.373 29.008 163.498C29.008 163.914 28.952 164.325 28.84 164.73C28.728 165.13 28.5413 165.557 28.28 166.01C28.024 166.463 27.6773 166.973 27.24 167.538L24.344 171.274L24.248 170.818H29.624V172.25H22.448Z" fill="white"/>
<line x1="26.75" y1="188.75" x2="26.75" y2="287.5" stroke="#00E5FF" stroke-width="0.5"/>
<rect x="4" y="287.5" width="45" height="45" rx="22.5" fill="white" fill-opacity="0.1"/>
<path d="M25.32 316.152C24.808 316.152 24.304 316.115 23.808 316.04C23.312 315.965 22.84 315.856 22.392 315.712V314.384C22.8507 314.528 23.328 314.64 23.824 314.72C24.3253 314.795 24.8053 314.832 25.264 314.832C26.2293 314.832 26.9467 314.651 27.416 314.288C27.8853 313.92 28.12 313.387 28.12 312.688C28.12 312.027 27.8987 311.515 27.456 311.152C27.0133 310.784 26.3013 310.6 25.32 310.6H23.808V309.264H24.752C25.7547 309.264 26.496 309.085 26.976 308.728C27.4613 308.365 27.704 307.853 27.704 307.192C27.704 306.584 27.5013 306.123 27.096 305.808C26.696 305.488 26.088 305.328 25.272 305.328C24.8293 305.328 24.384 305.365 23.936 305.44C23.4933 305.515 23.064 305.627 22.648 305.776V304.448C22.8987 304.357 23.1787 304.28 23.488 304.216C23.7973 304.147 24.1173 304.096 24.448 304.064C24.7787 304.027 25.104 304.008 25.424 304.008C26.7093 304.008 27.6827 304.275 28.344 304.808C29.0107 305.341 29.344 306.093 29.344 307.064C29.344 307.811 29.12 308.437 28.672 308.944C28.2293 309.451 27.6187 309.787 26.84 309.952L26.848 309.792C27.7813 309.915 28.496 310.232 28.992 310.744C29.488 311.251 29.736 311.928 29.736 312.776C29.736 313.48 29.5707 314.085 29.24 314.592C28.9147 315.093 28.424 315.48 27.768 315.752C27.112 316.019 26.296 316.152 25.32 316.152Z" fill="white"/>
<line x1="26.75" y1="332.5" x2="26.75" y2="431.25" stroke="#00E5FF" stroke-width="0.5"/>
<rect x="4" y="431.25" width="45" height="45" rx="22.5" fill="white" fill-opacity="0.1"/>
<path d="M21.86 457.038V456.102L26.308 447.91H27.972L23.54 456.11L23.324 455.686H30.868V457.038H21.86ZM27.692 459.75V455.686L27.884 451.91H29.236V459.75H27.692Z" fill="white"/>
<line x1="26.75" y1="476.25" x2="26.75" y2="575" stroke="#00E5FF" stroke-width="0.5"/>
<rect x="4" y="575" width="45" height="45" rx="22.5" fill="white" fill-opacity="0.1"/>
<path d="M25.536 603.652C25.0187 603.652 24.5093 603.612 24.008 603.532C23.512 603.452 23.0453 603.34 22.608 603.196V601.868C23.056 602.007 23.5307 602.116 24.032 602.196C24.5333 602.276 25.0187 602.316 25.488 602.316C26.448 602.316 27.16 602.132 27.624 601.764C28.088 601.396 28.32 600.852 28.32 600.132C28.32 599.663 28.2027 599.271 27.968 598.956C27.7387 598.641 27.3467 598.396 26.792 598.22C26.2427 598.044 25.4853 597.929 24.52 597.876L23.024 597.788L23.424 591.66H29.456V593.004H24.24L24.992 592.292L24.664 597.156L23.624 596.484L25.12 596.572C26.256 596.636 27.1787 596.807 27.888 597.084C28.6027 597.361 29.1227 597.751 29.448 598.252C29.7787 598.748 29.944 599.364 29.944 600.1C29.944 601.252 29.5707 602.132 28.824 602.74C28.0773 603.348 26.9813 603.652 25.536 603.652Z" fill="white"/>
</g>
<defs>
<filter id="filter0_d_61_1800" x="0" y="0" width="53" height="628" filterUnits="userSpaceOnUse" color-interpolation-filters="sRGB">
<feFlood flood-opacity="0" result="BackgroundImageFix"/>
<feColorMatrix in="SourceAlpha" type="matrix" values="0 0 0 0 0 0 0 0 0 0 0 0 0 0 0 0 0 0 127 0" result="hardAlpha"/>
<feOffset dy="4"/>
<feGaussianBlur stdDeviation="2"/>
<feComposite in2="hardAlpha" operator="out"/>
<feColorMatrix type="matrix" values="0 0 0 0 0 0 0 0 0 0 0 0 0 0 0 0 0 0 0.25 0"/>
<feBlend mode="normal" in2="BackgroundImageFix" result="effect1_dropShadow_61_1800"/>
<feBlend mode="normal" in="SourceGraphic" in2="effect1_dropShadow_61_1800" result="shape"/>
</filter>
</defs>
</svg>
