<svg width="327" height="2966" viewBox="0 0 327 2966" fill="none" xmlns="http://www.w3.org/2000/svg">
<g filter="url(#filter0_d_673_1673)">
<path d="M250.761 2915.5C261.859 2915.5 270.857 2924.99 270.857 2936.69C270.857 2948.39 261.859 2957.88 250.761 2957.88C239.662 2957.88 230.664 2948.39 230.664 2936.69C230.664 2924.99 239.662 2915.5 250.761 2915.5Z" fill="#0095FF"/>
<path d="M24.2183 2247.77C35.3172 2247.77 44.3145 2257.26 44.3145 2268.96C44.3145 2280.66 35.3172 2290.15 24.2183 2290.15C13.1195 2290.15 4.12214 2280.66 4.12214 2268.96C4.12214 2257.26 13.1195 2247.77 24.2183 2247.77Z" fill="#FD7000"/>
<path d="M240.464 1520.33C251.563 1520.33 260.56 1529.81 260.56 1541.52C260.56 1553.22 251.563 1562.71 240.464 1562.71C229.365 1562.71 220.368 1553.22 220.368 1541.52C220.368 1529.81 229.365 1520.33 240.464 1520.33Z" fill="#0095FF"/>
<path d="M24.2183 649.023C35.3171 649.023 44.3145 658.509 44.3145 670.212C44.3145 681.914 35.3171 691.401 24.2183 691.401C13.1194 691.401 4.12207 681.914 4.12207 670.212C4.12207 658.509 13.1194 649.023 24.2183 649.023Z" fill="#FD7000"/>
<path d="M302.782 0.878418C313.881 0.878417 322.878 10.3651 322.878 22.0674C322.878 33.7698 313.881 43.2565 302.782 43.2565C291.683 43.2565 282.686 33.7698 282.686 22.0674C282.686 10.3651 291.683 0.878418 302.782 0.878418Z" fill="#0095FF"/>
</g>
<defs>
<filter id="filter0_d_673_1673" x="0.12207" y="0.878418" width="326.756" height="2965" filterUnits="userSpaceOnUse" color-interpolation-filters="sRGB">
<feFlood flood-opacity="0" result="BackgroundImageFix"/>
<feColorMatrix in="SourceAlpha" type="matrix" values="0 0 0 0 0 0 0 0 0 0 0 0 0 0 0 0 0 0 127 0" result="hardAlpha"/>
<feOffset dy="4"/>
<feGaussianBlur stdDeviation="2"/>
<feComposite in2="hardAlpha" operator="out"/>
<feColorMatrix type="matrix" values="0 0 0 0 0 0 0 0 0 0 0 0 0 0 0 0 0 0 0.25 0"/>
<feBlend mode="normal" in2="BackgroundImageFix" result="effect1_dropShadow_673_1673"/>
<feBlend mode="normal" in="SourceGraphic" in2="effect1_dropShadow_673_1673" result="shape"/>
</filter>
</defs>
</svg>
