<svg width="250" height="1397" viewBox="0 0 250 1397" fill="none" xmlns="http://www.w3.org/2000/svg">
<path d="M154.61 12.5171C154.61 12.5171 227.603 60.482 228.307 204.396C229.005 347.192 18.502 445.206 19.567 588C21.0017 780.354 233.059 841.575 234.516 1036.83C235.366 1150.89 19.567 1388 19.567 1388" stroke="url(#paint0_linear_676_1674)" stroke-width="3"/>
<ellipse cx="10.8413" cy="10.5942" rx="10.8413" ry="10.5942" transform="matrix(0.00745823 0.999972 -0.999974 0.00715262 168.908 1)" fill="#0095FF"/>
<ellipse cx="10.8413" cy="10.5942" rx="10.8413" ry="10.5942" transform="matrix(0.00745823 0.999972 -0.999974 0.00715262 237.325 185)" fill="#FD7000"/>
<path d="M18.708 598.521C12.8572 598.563 8.07792 593.744 8.03327 587.756C7.98861 581.769 12.6955 576.881 18.5463 576.839C24.3972 576.798 29.1765 581.617 29.2211 587.605C29.2658 593.592 24.5589 598.48 18.708 598.521Z" fill="#0095FF"/>
<ellipse cx="10.8413" cy="10.5942" rx="10.8413" ry="10.5942" transform="matrix(0.00745823 0.999972 -0.999974 0.00715262 246.188 1003)" fill="#FD7000"/>
<path d="M21.7558 1396.76C15.9049 1396.8 11.1257 1391.98 11.081 1385.99C11.0363 1380.01 15.7432 1375.12 21.5941 1375.08C27.4449 1375.03 32.2242 1379.85 32.2688 1385.84C32.3135 1391.83 27.6066 1396.72 21.7558 1396.76Z" fill="#0095FF"/>
<defs>
<linearGradient id="paint0_linear_676_1674" x1="231.016" y1="567.433" x2="116.533" y2="568.287" gradientUnits="userSpaceOnUse">
<stop stop-color="#FD7000"/>
<stop offset="1" stop-color="#0095FF"/>
</linearGradient>
</defs>
</svg>
